<svg width="75" height="10" viewBox="0 0 75 10" fill="none" xmlns="http://www.w3.org/2000/svg">
<path d="M24.9028 0.200684C25.7189 0.200684 26.535 0.200684 27.3758 0.200684C27.5624 0.620102 27.551 0.887016 27.5529 1.35551C27.5538 1.52314 27.5548 1.69078 27.5558 1.8635C27.556 2.04523 27.5562 2.22696 27.5564 2.41419C27.5571 2.69385 27.5571 2.69385 27.5579 2.97916C27.5587 3.37429 27.5591 3.76943 27.559 4.16456C27.5594 4.76866 27.5622 5.3727 27.5651 5.97679C27.5656 6.36041 27.5659 6.74404 27.566 7.12766C27.5671 7.30833 27.5682 7.48901 27.5694 7.67516C27.5689 7.84444 27.5684 8.01372 27.5679 8.18813C27.5682 8.33642 27.5684 8.4847 27.5686 8.63748C27.5254 9.11864 27.3973 9.4926 27.2213 9.93171C26.2335 9.9361 25.2458 9.93916 24.258 9.94126C23.9217 9.94213 23.5854 9.94332 23.2491 9.94482C22.7669 9.94692 22.2846 9.94791 21.8024 9.94868C21.651 9.94958 21.4997 9.95048 21.3437 9.9514C21.1349 9.95142 21.1349 9.95142 20.9218 9.95144C20.7986 9.95183 20.6754 9.95221 20.5484 9.95261C20.2658 9.93171 20.2658 9.93171 20.1112 9.75794C20.1049 9.35255 20.1046 8.94696 20.1112 8.54157C19.8482 8.50931 19.8482 8.50931 19.5799 8.4764C19.3981 8.44056 19.2164 8.40472 19.0292 8.3678C18.8456 7.9549 18.8547 7.69859 18.8541 7.2383C18.8539 7.08419 18.8537 6.93008 18.8535 6.7713C18.8541 6.61002 18.8547 6.44874 18.8553 6.28258C18.8547 6.1213 18.8541 5.96002 18.8535 5.79385C18.8537 5.63974 18.8539 5.48563 18.8541 5.32685C18.8543 5.18528 18.8545 5.04372 18.8546 4.89786C18.8746 4.54489 18.8746 4.54489 19.0292 4.19736C19.3863 4.19736 19.7433 4.19736 20.1112 4.19736C20.1112 3.8533 20.1112 3.50923 20.1112 3.15475C20.8668 2.70348 21.5991 2.77402 22.4297 2.79635C22.7034 2.80237 22.9771 2.8076 23.2508 2.81196C23.3714 2.81508 23.4919 2.8182 23.6161 2.82142C24.0479 2.81523 24.0479 2.81523 24.7482 2.63344C24.7992 1.83063 24.8502 1.02782 24.9028 0.200684ZM22.6905 4.42543C22.4998 4.43909 22.3092 4.45276 22.1127 4.46683C21.8871 4.50547 21.8871 4.50547 21.6569 4.54489C21.4033 5.1151 21.4802 5.74353 21.483 6.36946C21.4824 6.50588 21.4818 6.64229 21.4812 6.78284C21.4655 7.51159 21.4655 7.51159 21.6569 8.19403C22.1689 8.19905 22.6808 8.20215 23.1929 8.20489C23.339 8.20635 23.4852 8.2078 23.6357 8.2093C23.7747 8.20986 23.9137 8.21042 24.0569 8.211C24.1856 8.21191 24.3143 8.21282 24.4469 8.21376C24.749 8.23164 24.749 8.23164 24.9028 8.02026C24.9182 7.50093 24.9242 6.98649 24.9221 6.46721C24.9227 6.32172 24.9233 6.17623 24.9239 6.02634C24.9236 5.81751 24.9236 5.81751 24.9233 5.60447C24.9231 5.47636 24.9229 5.34825 24.9228 5.21625C24.9203 4.87621 24.9203 4.87621 24.7482 4.54489C24.0504 4.35082 23.404 4.36867 22.6905 4.42543Z" fill="#DCE8EB"/>
<path d="M67.7179 2.78591C67.9666 2.78523 67.9666 2.78523 68.2202 2.78455C68.6453 2.80763 68.6453 2.80763 68.9544 2.98139C69.0054 4.58701 69.0564 6.19263 69.109 7.84691C69.313 7.90425 69.5171 7.9616 69.7273 8.02068C69.8502 7.41532 69.8987 6.86327 69.8915 6.24295C69.8903 6.07484 69.8891 5.90672 69.8879 5.73352C69.8859 5.56003 69.8839 5.38655 69.8818 5.2078C69.8779 4.86141 69.8746 4.515 69.8722 4.16859C69.8704 4.01578 69.8686 3.86297 69.8667 3.70553C69.8818 3.32893 69.8818 3.32893 70.0364 2.98139C70.4445 2.98139 70.8525 2.98139 71.2729 2.98139C71.4428 3.55437 71.4451 3.97702 71.4426 4.57993C71.4421 4.78993 71.4416 4.99993 71.4411 5.21629C71.4391 5.5454 71.4391 5.5454 71.4372 5.88116C71.4365 6.10258 71.4358 6.324 71.4351 6.55213C71.4332 7.09958 71.4307 7.64701 71.4275 8.19445C71.6825 8.07976 71.9376 7.96507 72.2003 7.84691C72.1995 7.72422 72.1987 7.60152 72.1979 7.47511C72.1947 6.91845 72.1927 6.3618 72.1907 5.80513C72.1894 5.61204 72.1881 5.41896 72.1868 5.22002C72.1863 5.0341 72.1858 4.84818 72.1852 4.65663C72.1844 4.48555 72.1836 4.31447 72.1828 4.13821C72.1987 3.71902 72.2281 3.37539 72.3549 2.98139C72.7102 2.78166 72.9259 2.77882 73.321 2.77504C73.4365 2.77258 73.5521 2.77012 73.6711 2.76758C74.1393 2.81641 74.5395 2.98259 74.9825 3.15516C74.9864 3.86647 74.9892 4.57777 74.991 5.28909C74.9918 5.53113 74.9929 5.77317 74.9942 6.01521C74.9961 6.36286 74.9969 6.71051 74.9976 7.05816C74.9985 7.26746 74.9993 7.47676 75.0001 7.6924C74.9825 8.19445 74.9825 8.19445 74.828 8.54198C74.3546 8.65059 74.3546 8.65059 73.9006 8.71575C73.7986 9.11716 73.6965 9.51856 73.5914 9.93213C72.8263 9.93213 72.0612 9.93213 71.2729 9.93213C71.0636 9.46143 71.1083 9.06167 71.1184 8.54198C70.7358 8.628 70.7358 8.628 70.3455 8.71575C70.3073 8.8842 70.269 9.05265 70.2296 9.2262C70.1659 9.40181 70.1021 9.57743 70.0364 9.75836C69.5263 9.99202 68.9958 9.94964 68.4521 9.94299C68.2855 9.94142 68.119 9.93986 67.9473 9.93824C67.8206 9.93622 67.6939 9.93421 67.5633 9.93213C67.5123 9.53073 67.4613 9.12932 67.4088 8.71575C67.2589 8.66199 67.1091 8.60823 66.9547 8.55284C66.4814 8.36822 66.4814 8.36822 66.3268 8.19445C66.3114 7.91205 66.3066 7.6289 66.3063 7.34597C66.3061 7.1717 66.3059 6.99743 66.3057 6.81788C66.3063 6.6342 66.3069 6.45052 66.3075 6.26127C66.3069 6.08163 66.3063 5.90198 66.3057 5.71689C66.3078 3.87327 66.3078 3.87327 66.4814 2.98139C66.9035 2.74413 67.2473 2.78463 67.7179 2.78591Z" fill="#DCE8EB"/>
<path d="M3.49047 0.00406579C3.79024 0.00372979 3.79024 0.00372979 4.09606 0.003387C4.20034 0.003751 4.30462 0.004115 4.41207 0.00449003C4.73059 0.00541971 5.04909 0.00449884 5.36762 0.003387C5.56746 0.003611 5.76731 0.003835 5.97321 0.00406579C6.15741 0.00426178 6.34161 0.00445778 6.5314 0.00465972C6.97306 0.0271444 6.97306 0.0271444 7.2822 0.200913C7.34515 0.604328 7.39725 1.01013 7.43676 1.41729C7.5866 1.41371 7.73643 1.41012 7.8908 1.40643C8.36417 1.41729 8.36417 1.41729 8.51873 1.59106C8.53926 1.90602 8.53926 1.90602 8.53805 2.28613C8.53865 2.47429 8.53865 2.47429 8.53926 2.66625C8.51873 2.98121 8.51873 2.98121 8.36417 3.15498C7.97303 3.16768 7.58622 3.17105 7.19525 3.16584C7.03043 3.16466 7.03043 3.16466 6.86227 3.16346C6.59006 3.16141 6.31786 3.15829 6.04566 3.15498C5.94365 2.75357 5.84163 2.35217 5.73653 1.9386C5.12444 1.9386 4.51236 1.9386 3.88172 1.9386C3.85941 2.10704 3.83709 2.27549 3.8141 2.44904C3.72716 2.98121 3.72716 2.98121 3.57259 3.15498C3.26655 3.15498 2.9605 3.15498 2.64519 3.15498C2.69619 4.30185 2.7472 5.44872 2.79975 6.63035C3.1058 6.74503 3.41184 6.85972 3.72716 6.97788C3.93968 7.52091 3.93968 7.52091 4.03629 8.02049C4.64837 8.07784 5.26046 8.13518 5.89109 8.19426C5.89109 7.79286 5.89109 7.39145 5.89109 6.97788C6.39169 6.79029 6.76599 6.78096 7.29186 6.78239C7.45624 6.78194 7.62061 6.7815 7.78997 6.78103C8.2096 6.80411 8.2096 6.80411 8.51873 6.97788C8.51873 7.43663 8.51873 7.89538 8.51873 8.36803C7.98316 8.45404 7.98316 8.45404 7.43676 8.5418C7.38576 9.00055 7.33475 9.4593 7.2822 9.93195C6.62748 9.94053 5.97278 9.94684 5.31803 9.95104C5.09523 9.95279 4.87244 9.95516 4.64965 9.95816C4.32967 9.96237 4.00972 9.96435 3.68972 9.96588C3.40075 9.96861 3.40075 9.96861 3.10594 9.9714C2.64519 9.93195 2.64519 9.93195 2.33605 9.58441C2.23945 9.12827 2.23945 9.12827 2.18149 8.71557C2.03484 8.67973 1.88819 8.64389 1.73711 8.60696C1.57771 8.52811 1.41831 8.44927 1.25408 8.36803C1.15104 8.02049 1.04799 7.67296 0.944949 7.32542C0.479938 7.11252 0.479938 7.11252 0.0175473 6.97788C0.0130846 6.31539 0.0103205 5.65291 0.00788684 4.99041C0.00659174 4.80124 0.00529664 4.61207 0.00396229 4.41717C0.00346417 4.23741 0.00296606 4.05766 0.00245285 3.87245C0.00164341 3.70592 0.000833968 3.53939 0 3.36782C0.0175473 2.98121 0.0175473 2.98121 0.172114 2.80744C0.481184 2.80035 0.790452 2.80005 1.09952 2.80744C1.15052 2.40603 1.20153 2.00463 1.25408 1.59106C1.56013 1.53372 1.86617 1.47637 2.18149 1.41729C2.18149 1.01589 2.18149 0.614482 2.18149 0.200913C2.62201 -0.0467134 2.99856 0.0045892 3.49047 0.00406579Z" fill="#DCE8EB"/>
<path d="M31.2062 2.78402C31.3845 2.78377 31.3845 2.78377 31.5665 2.78351C31.818 2.7834 32.0696 2.78372 32.3211 2.78444C32.7068 2.78537 33.0925 2.78445 33.4782 2.78334C33.7223 2.78345 33.9664 2.78368 34.2106 2.78402C34.3842 2.78349 34.3842 2.78349 34.5614 2.78295C35.3777 2.78712 35.3777 2.78712 35.7224 2.98087C35.8348 3.32473 35.9385 3.67238 36.0315 4.02348C36.3376 4.08082 36.6436 4.13816 36.9589 4.19724C36.9589 5.11474 36.9589 6.03224 36.9589 6.97754C36.4685 7.25321 35.9406 7.1723 35.4024 7.16828C35.2793 7.16803 35.1563 7.16778 35.0295 7.16753C34.6357 7.16656 34.242 7.16438 33.8483 7.16217C33.5816 7.1613 33.315 7.1605 33.0483 7.15979C32.394 7.15787 31.7397 7.15487 31.0854 7.15131C31.0854 7.43803 31.0854 7.72474 31.0854 8.02015C31.2388 8.01813 31.3922 8.01612 31.5503 8.01404C32.95 8.00158 34.327 8.05665 35.7224 8.19392C35.9119 8.83302 35.8527 9.02531 35.7224 9.75783C33.7331 9.81518 31.7439 9.87252 29.6943 9.9316C29.6433 9.5302 29.5923 9.12879 29.5397 8.71522C29.1827 8.60054 28.8256 8.48585 28.4578 8.36769C28.4578 6.99144 28.4578 5.61519 28.4578 4.19724C28.9933 4.11123 28.9933 4.11123 29.5397 4.02348C29.5684 3.77081 29.5684 3.77081 29.5977 3.51303C29.6296 3.33742 29.6615 3.1618 29.6943 2.98087C30.1736 2.71145 30.6803 2.78242 31.2062 2.78402ZM31.0854 4.54478C31.0791 4.83431 31.0788 5.1241 31.0854 5.41362C31.5926 5.69873 32.1516 5.6122 32.7084 5.60911C32.8297 5.60978 32.951 5.61046 33.0761 5.61115C33.7243 5.62876 33.7243 5.62876 34.3313 5.41362C34.3313 5.12691 34.3313 4.84019 34.3313 4.54478C32.6061 4.14863 32.6061 4.14863 31.0854 4.54478Z" fill="#DCE8EB"/>
<path d="M38.041 0.200684C40.7954 0.200684 43.5498 0.200684 46.3876 0.200684C46.5422 1.41706 46.5422 1.41706 46.3876 1.7646C44.5003 1.82194 42.6131 1.87929 40.6686 1.93837C40.6686 2.62649 40.6686 3.31461 40.6686 4.02359C42.1478 4.08093 43.627 4.13828 45.1511 4.19736C45.3056 5.0662 45.3056 5.0662 44.9965 5.76127C43.5683 5.81862 42.1401 5.87596 40.6686 5.93504C40.6176 7.1966 40.5666 8.45816 40.5141 9.75795C39.9112 9.92738 39.539 9.9227 38.9298 9.85569C38.7632 9.838 38.5966 9.8203 38.425 9.80207C38.2983 9.78751 38.1716 9.77295 38.041 9.75795C37.9328 7.44828 37.8702 5.1418 37.8671 2.82893C37.8664 2.60803 37.8657 2.38712 37.865 2.15952C37.8653 1.95438 37.8656 1.74924 37.8659 1.53789C37.8661 1.35513 37.8662 1.17238 37.8664 0.984084C37.8864 0.54822 37.8864 0.54822 38.041 0.200684Z" fill="#DCE8EB"/>
<path d="M12.4663 2.78427C12.6337 2.78402 12.6337 2.78402 12.8045 2.78377C13.0396 2.78365 13.2748 2.78397 13.5099 2.78469C13.8705 2.78563 14.231 2.7847 14.5916 2.78359C14.8202 2.78371 15.0488 2.78393 15.2775 2.78427C15.3855 2.78392 15.4935 2.78357 15.6048 2.7832C16.3662 2.78737 16.3662 2.78737 16.7108 2.98112C16.8232 3.32498 16.9269 3.67264 17.02 4.02373C17.326 4.08107 17.632 4.13841 17.9474 4.19749C17.9474 5.57374 17.9474 6.94999 17.9474 8.36794C17.4118 8.45395 17.4118 8.45395 16.8654 8.54171C16.8144 9.00045 16.7634 9.4592 16.7108 9.93185C14.7726 9.93185 12.8343 9.93185 10.8373 9.93185C10.5281 8.88924 10.5281 8.88924 10.5281 8.54171C10.3783 8.51662 10.2285 8.49153 10.0741 8.46568C9.60075 8.36794 9.60075 8.36794 9.44618 8.19417C9.43088 7.92694 9.42596 7.65895 9.42565 7.39117C9.42545 7.22866 9.42525 7.06615 9.42505 6.89871C9.42565 6.72769 9.42624 6.55667 9.42686 6.38046C9.42626 6.21011 9.42566 6.03976 9.42505 5.86425C9.42525 5.70151 9.42545 5.53878 9.42565 5.37111C9.42583 5.22116 9.426 5.0712 9.42618 4.91671C9.44618 4.54503 9.44618 4.54503 9.60075 4.19749C10.0741 4.08889 10.0741 4.08889 10.5281 4.02373C10.5792 3.67967 10.6302 3.3356 10.6827 2.98112C11.2708 2.76846 11.8554 2.78227 12.4663 2.78427ZM12.0738 4.54503C12.0694 5.12064 12.0666 5.69624 12.0642 6.27186C12.0629 6.43616 12.0616 6.60046 12.0602 6.76974C12.0597 6.92598 12.0592 7.08222 12.0587 7.24319C12.0579 7.38788 12.0571 7.53257 12.0563 7.68165C12.0404 8.0213 12.0404 8.0213 12.2284 8.19417C12.4585 8.20923 12.6892 8.21277 12.9197 8.21114C13.1074 8.21049 13.1074 8.21049 13.2989 8.20982C13.4589 8.20824 13.6189 8.20666 13.7837 8.20503C14.544 8.19965 14.544 8.19965 15.3197 8.19417C15.3197 6.98995 15.3197 5.78574 15.3197 4.54503C14.8555 4.2841 14.3791 4.34629 13.8707 4.34954C13.7147 4.34853 13.7147 4.34853 13.5555 4.34751C13.0346 4.34866 12.5745 4.38908 12.0738 4.54503Z" fill="#DCE8EB"/>
<path d="M59.5289 2.78415C59.6364 2.78399 59.7439 2.78382 59.8547 2.78365C60.0824 2.78353 60.3102 2.78385 60.538 2.78458C60.885 2.7855 61.232 2.78459 61.579 2.78347C61.8005 2.78359 62.0219 2.78381 62.2434 2.78415C62.4446 2.78435 62.6458 2.78455 62.8531 2.78475C63.3119 2.80396 63.718 2.86024 64.1628 2.981C64.2649 3.32506 64.3669 3.66912 64.472 4.02361C64.778 4.08095 65.0841 4.1383 65.3994 4.19738C65.5732 4.98853 65.5877 5.75507 65.5926 6.56497C65.5958 6.69758 65.599 6.83019 65.6022 6.96681C65.6083 7.92914 65.6083 7.92914 65.3456 8.36986C64.9942 8.60618 64.7187 8.57817 64.3174 8.54159C64.3238 8.70645 64.3302 8.87131 64.3367 9.04117C64.3174 9.5842 64.3174 9.5842 64.0083 9.93174C63.5648 9.9622 63.1365 9.97194 62.6932 9.96568C62.4983 9.96494 62.4983 9.96494 62.2995 9.96419C61.8837 9.96224 61.468 9.95787 61.0522 9.95346C60.7706 9.95171 60.4891 9.95013 60.2075 9.94871C59.5166 9.94487 58.8257 9.93887 58.1347 9.93174C58.0837 9.53033 58.0327 9.12893 57.9802 8.71536C57.6231 8.60067 57.2661 8.48598 56.8982 8.36782C56.8982 7.04892 56.8982 5.73002 56.8982 4.37115C57.2552 4.25646 57.6123 4.14177 57.9802 4.02361C58.0089 3.77094 58.0089 3.77094 58.0381 3.51317C58.07 3.33755 58.1019 3.16194 58.1347 2.981C58.5956 2.72197 59.0153 2.78465 59.5289 2.78415ZM59.5258 4.54492C59.5214 5.12052 59.5186 5.69612 59.5162 6.27174C59.5149 6.43604 59.5136 6.60034 59.5122 6.76963C59.5117 6.92587 59.5113 7.0821 59.5107 7.24308C59.5099 7.38777 59.5091 7.53246 59.5083 7.68153C59.4924 8.02118 59.4924 8.02118 59.6804 8.19405C59.9105 8.20912 60.1412 8.21265 60.3717 8.21102C60.5802 8.21018 60.5802 8.21018 60.7929 8.20932C60.939 8.20787 61.0852 8.20641 61.2357 8.20491C61.4558 8.20374 61.4558 8.20374 61.6804 8.20254C62.0442 8.20048 62.408 8.19762 62.7717 8.19405C62.8814 7.41614 62.9474 6.66834 62.9456 5.88076C62.946 5.70223 62.9464 5.52371 62.9468 5.33977C62.953 4.89455 62.953 4.89455 62.7717 4.54492C62.1964 4.32931 61.6607 4.34585 61.0618 4.34943C60.9486 4.34875 60.8353 4.34808 60.7186 4.34739C60.1022 4.33449 60.1022 4.33449 59.5258 4.54492Z" fill="#DCE8EB"/>
<path d="M50.2864 0.181152C50.4346 0.182062 50.5827 0.182972 50.7353 0.18391C50.9751 0.18475 50.9751 0.18475 51.2198 0.185607C51.3881 0.187063 51.5564 0.188519 51.7297 0.190019C51.983 0.191195 51.983 0.191195 52.2414 0.192395C52.6602 0.19445 53.0789 0.197315 53.4976 0.200879C53.6353 1.12265 53.6708 2.00285 53.6618 2.93637C53.6612 3.07695 53.6606 3.21752 53.66 3.36236C53.6582 3.80729 53.6553 4.25221 53.6522 4.69714C53.6481 5.28677 53.645 5.8764 53.6425 6.46604C53.6412 6.60197 53.6399 6.73789 53.6386 6.87793C53.6373 7.20089 53.6439 7.52386 53.6522 7.84669C53.9404 8.17074 54.4239 8.08083 54.8114 8.10734C55.7989 8.17492 55.7989 8.17492 55.9707 8.36799C56.0113 9.06856 56.0161 9.33396 55.6615 9.93191C55.3751 9.99694 55.3751 9.99694 55.0237 9.99661C54.8921 9.99769 54.7606 9.99877 54.625 9.99989C54.4827 9.99829 54.3404 9.99669 54.1937 9.99504C54.0478 9.99512 53.9018 9.99521 53.7514 9.9953C53.4422 9.99489 53.1331 9.9932 52.824 9.99033C52.3504 9.98623 51.877 9.98675 51.4034 9.98791C51.1034 9.98694 50.8034 9.9857 50.5035 9.98418C50.3614 9.98433 50.2194 9.98449 50.0731 9.98466C49.9411 9.983 49.809 9.98134 49.673 9.97964C49.5569 9.97884 49.4408 9.97804 49.3211 9.97721C49.0151 9.93191 49.0151 9.93191 48.5514 9.58437C48.5128 8.96532 48.5128 8.96532 48.5514 8.36799C48.8514 8.03073 49.3974 8.12486 49.7976 8.09648C49.9971 8.08192 50.1965 8.06736 50.402 8.05236C50.5564 8.04183 50.7109 8.0313 50.8699 8.02046C50.8738 7.23809 50.8766 6.45573 50.8784 5.67335C50.8792 5.40721 50.8803 5.14107 50.8816 4.87494C50.8835 4.49234 50.8844 4.10976 50.885 3.72716C50.8858 3.60822 50.8866 3.48928 50.8875 3.36673C50.8875 2.84058 50.8647 2.44223 50.7154 1.93856C50.2563 1.85255 50.2563 1.85255 49.788 1.7648C49.7729 0.695712 49.7729 0.695712 49.788 0.374648C49.9425 0.200879 49.9425 0.200879 50.2864 0.181152Z" fill="#DCE8EB"/>
<path d="M7.28231 0.200493C7.28231 0.544555 7.28231 0.888616 7.28231 1.2431C7.1803 1.07107 7.07828 0.899042 6.97318 0.721799C6.66052 0.633834 6.66052 0.633834 6.30057 0.632878C6.16907 0.626718 6.03756 0.620558 5.90207 0.614211C5.76459 0.610292 5.62711 0.606372 5.48547 0.602333C5.27746 0.593429 5.27746 0.593429 5.06524 0.584345C4.72231 0.56999 4.37945 0.557982 4.0364 0.54803C3.9854 0.433343 3.93439 0.318656 3.88184 0.200493C4.33261 0.166605 4.78339 0.134237 5.2343 0.102749C5.42557 0.0881327 5.42557 0.0881327 5.62071 0.0732216C5.74425 0.0648216 5.86778 0.0564217 5.99506 0.0477672C6.10838 0.0395773 6.2217 0.0313873 6.33845 0.0229492C6.67696 0.0268747 6.95847 0.0936476 7.28231 0.200493Z" fill="#DCE8EB"/>
<path d="M69.5728 8.71533C69.6748 8.77268 69.7768 8.83002 69.882 8.8891C69.9786 9.33438 69.9786 9.33438 70.0365 9.75794C69.5092 9.94848 69.0772 9.92166 68.5295 9.85569C68.3773 9.83799 68.225 9.8203 68.0682 9.80206C67.9526 9.7875 67.8371 9.77294 67.718 9.75794C67.769 9.64326 67.82 9.52857 67.8726 9.41041C68.2296 9.41041 68.5867 9.41041 68.9546 9.41041C69.0056 9.23837 69.0566 9.06634 69.1091 8.8891C69.2621 8.83176 69.4152 8.77441 69.5728 8.71533Z" fill="#DCE8EB"/>
<path d="M3.72722 0.374328C3.1476 0.721865 3.1476 0.721865 2.79982 0.721865C2.74881 1.12327 2.69781 1.52467 2.64525 1.93824C2.49223 1.8809 2.33921 1.82356 2.18155 1.76448C2.18155 1.87916 2.18155 1.99385 2.18155 2.11201C1.97752 2.11201 1.7735 2.11201 1.56328 2.11201C1.46127 2.34139 1.35926 2.57076 1.25415 2.80709C1.25415 2.40568 1.25415 2.00428 1.25415 1.59071C1.78973 1.50469 1.78973 1.50469 2.33612 1.41694C2.33612 1.13022 2.33612 0.843503 2.33612 0.548096C2.79312 0.291211 3.22369 0.363845 3.72722 0.374328Z" fill="#DCE8EB"/>
<path d="M70.0364 2.98145C70.4444 2.98145 70.8525 2.98145 71.2729 2.98145C71.2729 4.52972 71.2729 6.078 71.2729 7.67319C71.2219 7.67319 71.1709 7.67319 71.1183 7.67319C71.1145 7.55394 71.1106 7.43469 71.1066 7.31183C71.0887 6.77337 71.0697 6.23498 71.0507 5.69658C71.0446 5.50887 71.0386 5.32116 71.0323 5.12776C71.0258 4.94856 71.0194 4.76936 71.0127 4.58473C71.007 4.41911 71.0014 4.25349 70.9955 4.08286C70.9858 3.67281 70.9858 3.67281 70.8092 3.32898C70.4186 3.21507 70.4186 3.21507 70.0364 3.15521C70.0364 3.09787 70.0364 3.04053 70.0364 2.98145Z" fill="#DCE8EB"/>
<path d="M59.2168 6.63037C59.2678 6.63037 59.3188 6.63037 59.3714 6.63037C59.4734 7.08912 59.5754 7.54787 59.6805 8.02052C60.7516 8.10653 60.7516 8.10653 61.8444 8.19429C61.8444 8.25163 61.8444 8.30897 61.8444 8.36806C61.4645 8.40183 61.0846 8.43422 60.7045 8.4658C60.5965 8.47554 60.4885 8.48529 60.3773 8.49533C59.5609 8.56151 59.5609 8.56151 59.2168 8.36806C59.2168 7.79462 59.2168 7.22118 59.2168 6.63037Z" fill="#DCE8EB"/>
<path d="M0.0175781 2.98145C0.374628 2.98145 0.731678 2.98145 1.09955 2.98145C0.635846 3.32898 0.635846 3.32898 0.326712 3.32898C0.326712 3.6157 0.326712 3.90242 0.326712 4.19782C0.173691 4.28384 0.173691 4.28384 0.0175781 4.37159C0.0175781 3.91284 0.0175781 3.4541 0.0175781 2.98145Z" fill="#DCE8EB"/>
<path d="M10.5281 8.19385C10.6811 8.19385 10.8341 8.19385 10.9918 8.19385C11.1514 8.67836 11.1533 8.86594 11.0014 9.36678C10.9472 9.49581 10.893 9.62483 10.8372 9.75776C10.7862 9.75776 10.7352 9.75776 10.6826 9.75776C10.6316 9.24167 10.5806 8.72558 10.5281 8.19385Z" fill="#DCE8EB"/>
</svg>
