<svg width="40" height="15" viewBox="0 0 40 15" fill="none" xmlns="http://www.w3.org/2000/svg">
<path d="M13.4905 2.00407C13.7902 2.00373 13.7902 2.00373 14.0961 2.00339C14.2003 2.00375 14.3046 2.00411 14.4121 2.00449C14.7306 2.00542 15.0491 2.0045 15.3676 2.00339C15.5675 2.00361 15.7673 2.00384 15.9732 2.00407C16.1574 2.00426 16.3416 2.00446 16.5314 2.00466C16.9731 2.02714 16.9731 2.02714 17.2822 2.20091C17.3452 2.60433 17.3973 3.01013 17.4368 3.41729C17.5866 3.41371 17.7364 3.41012 17.8908 3.40643C18.3642 3.41729 18.3642 3.41729 18.5187 3.59106C18.5393 3.90602 18.5393 3.90602 18.5381 4.28613C18.5387 4.47429 18.5387 4.47429 18.5393 4.66625C18.5187 4.98121 18.5187 4.98121 18.3642 5.15498C17.973 5.16768 17.5862 5.17105 17.1953 5.16584C17.0304 5.16466 17.0304 5.16466 16.8623 5.16346C16.5901 5.16141 16.3179 5.15829 16.0457 5.15498C15.9436 4.75357 15.8416 4.35217 15.7365 3.9386C15.1244 3.9386 14.5124 3.9386 13.8817 3.9386C13.8594 4.10704 13.8371 4.27549 13.8141 4.44904C13.7272 4.98121 13.7272 4.98121 13.5726 5.15498C13.2665 5.15498 12.9605 5.15498 12.6452 5.15498C12.6962 6.30185 12.7472 7.44872 12.7998 8.63035C13.1058 8.74503 13.4118 8.85972 13.7272 8.97788C13.9397 9.52091 13.9397 9.52091 14.0363 10.0205C14.6484 10.0778 15.2605 10.1352 15.8911 10.1943C15.8911 9.79286 15.8911 9.39145 15.8911 8.97788C16.3917 8.79029 16.766 8.78096 17.2919 8.78239C17.4562 8.78194 17.6206 8.7815 17.79 8.78103C18.2096 8.80411 18.2096 8.80411 18.5187 8.97788C18.5187 9.43663 18.5187 9.89538 18.5187 10.368C17.9832 10.454 17.9832 10.454 17.4368 10.5418C17.3858 11.0005 17.3347 11.4593 17.2822 11.9319C16.6275 11.9405 15.9728 11.9468 15.318 11.951C15.0952 11.9528 14.8724 11.9552 14.6497 11.9582C14.3297 11.9624 14.0097 11.9643 13.6897 11.9659C13.4008 11.9686 13.4008 11.9686 13.1059 11.9714C12.6452 11.9319 12.6452 11.9319 12.3361 11.5844C12.2394 11.1283 12.2394 11.1283 12.1815 10.7156C12.0348 10.6797 11.8882 10.6439 11.7371 10.607C11.5777 10.5281 11.4183 10.4493 11.2541 10.368C11.151 10.0205 11.048 9.67296 10.9449 9.32542C10.4799 9.11252 10.4799 9.11252 10.0175 8.97788C10.0131 8.31539 10.0103 7.65291 10.0079 6.99041C10.0066 6.80124 10.0053 6.61207 10.004 6.41717C10.0035 6.23741 10.003 6.05766 10.0025 5.87245C10.0016 5.70592 10.0008 5.53939 10 5.36782C10.0175 4.98121 10.0175 4.98121 10.1721 4.80744C10.4812 4.80035 10.7905 4.80005 11.0995 4.80744C11.1505 4.40603 11.2015 4.00463 11.2541 3.59106C11.5601 3.53372 11.8662 3.47637 12.1815 3.41729C12.1815 3.01589 12.1815 2.61448 12.1815 2.20091C12.622 1.95329 12.9986 2.00459 13.4905 2.00407Z" fill="#DCE8EB"/>
<path d="M19.176 2C21.9304 2 24.6848 2 27.5226 2C27.6772 3.21638 27.6772 3.21638 27.5226 3.56392C25.6354 3.62126 23.7481 3.6786 21.8036 3.73768C21.8036 4.42581 21.8036 5.11393 21.8036 5.82291C23.2828 5.88025 24.7621 5.93759 26.2861 5.99667C26.4406 6.86552 26.4406 6.86552 26.1315 7.56059C24.7033 7.61793 23.2751 7.67528 21.8036 7.73436C21.7526 8.99592 21.7016 10.2575 21.6491 11.5573C21.0462 11.7267 20.674 11.722 20.0648 11.655C19.8982 11.6373 19.7316 11.6196 19.56 11.6014C19.4333 11.5868 19.3066 11.5723 19.176 11.5573C19.0678 9.2476 19.0052 6.94111 19.0021 4.62825C19.0014 4.40734 19.0007 4.18644 19 3.95884C19.0003 3.7537 19.0006 3.54856 19.0009 3.3372C19.0011 3.15445 19.0013 2.97169 19.0014 2.7834C19.0214 2.34754 19.0214 2.34754 19.176 2Z" fill="#DCE8EB"/>
<path d="M7 12.375V10.75H5.375V7.5H3.75V5.875H5.375V2.625H7V1H10.25V2.625H8.625V5.875H7V7.5H8.625V10.75H10.25V12.375H7Z" fill="#DCE8EB" fill-opacity="0.921569"/>
<path d="M28.625 12.375V10.75H30.25V7.5H31.875V5.875H30.25V2.625H28.625V1H31.875V2.625H33.5V5.875H35.125V7.5H33.5V10.75H31.875V12.375H28.625Z" fill="#DCE8EB"/>
</svg>
